<mxfile host="app.diagrams.net" modified="2024-04-12T23:05:57.324Z" agent="Mozilla/5.0 (Windows NT 10.0; Win64; x64) AppleWebKit/537.36 (KHTML, like Gecko) Chrome/123.0.0.0 Safari/537.36" version="24.2.3" etag="x25bjeK-BI5sISFLudDX" type="github">
  <diagram name="PÃ¡gina-1" id="K0ixNf-obSJACP9cZ-eT">
    <mxGraphModel>
      <root>
        <mxCell id="0" />
        <mxCell id="1" parent="0" />
      </root>
    </mxGraphModel>
  </diagram>
</mxfile>
